# xmcd CD database file
#
# Track frame offsets:
#	150
#	18021
#	31487
#	47038
#	64596
#	79716
#	95583
#	113835
#	131203
#	147120
#
# Disc length: 2161 seconds
#
# Revision: 2
# Processed by: cddbd v1.5.2PL0 Copyright (c) Steve Scherf et al.
# Submitted via: CDex 1.51
#
DISCID=7f086f0a
DTITLE=Lee Greenwood - Wounded Heart
DYEAR=1998
DGENRE=Country
TTITLE0=Somebody's Gonna Love You
TTITLE1=Who's That Knockin' On My Heart
TTITLE2=Dixie Road
TTITLE3=You Can't Fall In Love When You're Cryin
TTITLE4=I've Got Georgia On My Mind
TTITLE5=Here Comes Love - There Goes My Heart
TTITLE6=Wounded Heart
TTITLE7=Fool's Gold
TTITLE8=A Love Song
TTITLE9=God Bless The USA
EXTD=YEAR: 1998
EXTT0=
EXTT1=
EXTT2=
EXTT3=
EXTT4=
EXTT5=
EXTT6=
EXTT7=
EXTT8=
EXTT9=
PLAYORDER=
